<svg fill="none" height="40" viewBox="0 0 175 40" width="175" xmlns="http://www.w3.org/2000/svg"><path d="m170.394 7.66415 4.174 4.20265c.146.1161.254.2728.31.4503.085 1.0344-.698 1.091-1.498 1.1488-.346.025-.695.0503-.978.1551-1.404.3799-2.656 1.1823-3.587 2.2983-.932 1.116-1.497 2.4916-1.62 3.94-.09.1673-.226.305-.393.3965-.166.0916-.355.133-.545.1195-.22-.0195-.426-.1158-.582-.2721l-1.37-1.3794c.01.0944.01.1879.01.2631v.9099c0 .0575.002.1129-.005.1682-.009.062-.03.1238-.079.1882v.0845c0 .0431.005.0832.01.1239.01.0833.021.1691-.01.2889-.03.1117-.033.242-.037.3583-.001.0691-.003.1333-.01.1857-.01.0727-.01.1503-.016.2278-.006.0726-.018.1451-.05.2131-.044.0952-.059.1861-.063.2785-.003.0442-.003.0887-.003.1343l-.056.2908-2.129 10.1501-.169.7598-.066 1.107-.938 4.7936-.15.7505h-75.9192l-.3659-.3659-.0657.319h-8.1238l-4.5216-4.5497.4315-2.0545h-2.5516l-1.5853-1.6041c-1.9675 1.4327-4.349 2.1837-6.7824 2.1389-2.6158.1029-5.1659-.8349-7.0919-2.6079l-2.4672-2.4859-.5347 2.4952c-.0656.3565-.1501.6943-.2439 1.0226l-.0844.3096-.1407.4502c-.0116.0391-.0273.0769-.0469.1126-.1397.4136-.3057.8178-.4972 1.2101.005.0152.005.0317 0 .0469-.0246.052-.0528.1021-.0845.1501-.1416.2803-.2981.5527-.469.8162-.0317.0479-.0599.0981-.0844.1501l-.1032.1125c-.2293.3289-.48.6422-.7505.9381-.0742.0742-.1484.1439-.2238.2123-.077.07-.1552.1387-.2359.2098l-.2063.197c-.1301.1081-.2632.2124-.3991.3129-.1121.0829-.2261.1631-.342.2406-1.9333 1.1455-4.1634 1.6907-6.4071 1.5666-3.0957 0-5.5723-.9006-7.1389-2.4765l-4.409-4.4372c-1.7611.9966-3.7552 1.5081-5.7786 1.4822-2.6079.0807-5.1426-.8698-7.0544-2.6454l-2.4671-2.4859-.7974 3.8368-.1595.7598h-8.30204l-4.54036-4.5779.234521-1.1069 4.990629-23.96812.15006-.75046h8.33019l.2158.20641v-.20641h56.1257l.2064.20641v-.20641h8.1238l4.5403 4.57786-.2251 1.09755-.2439 1.20077h2.3358l.3659.3659c1.0278-.60236 2.1952-.92575 3.3865-.93811.876-.0173 1.7459.14909 2.5537.48839.8079.33932 1.5357.84392 2.1367 1.48152l-.122-.1407 2.2045 2.2233c1.3415-2.5234 4.3527-4.05251 8.4425-4.05251 3.171 0 5.507.80671 6.923 2.27011l1.595 1.6042.535-2.5798.159-.75047h8.133l2.327 2.33587.328-1.576.16-.75048h16.004l.431.43158c1.084-.63964 2.325-.96452 3.584-.93812.757-.02955 1.511.10907 2.209.40589.697.29683 1.32.74453 1.824 1.31083-.026-.0295-.051-.059-.076-.088-.045-.0538-.09-.1063-.138-.1549l.815.8151c.71-.7353 1.564-1.3176 2.507-1.71115.944-.39358 1.958-.59025 2.98-.57777.543-.03338 1.085.01282 1.611.13575l-.888-.8956c-.121-.12945-.203-.29052-.236-.46452s-.016-.3539.048-.51874c.065-.1649.175-.30804.318-.41293s.312-.16725.489-.17979h.713c.192-.01832.383-.04649.572-.08445.997-.20956 1.935-.63806 2.746-1.2546.812-.61647 1.476-1.40552 1.945-2.31011.041-.06997.078-.14194.112-.21575v-.04689c.323-.6948.519-1.44114.582-2.204534.016-.237213.123-.45931.297-.62123.174-.1619781.403-.25175584.641-.25118328h.075c.142.01351248.28.05943198.402.13420828.122.074834.225.176521.302.297332.675.656667 4.427 4.474627 4.427 4.474627.313.33621.29.77268.266 1.21429-.015.27306-.03.54812.034.80262.171.03063.344.05382.516.06951.166.01494.332.02307.498.02428.194.00406.383.06853.539.18453.156.11595.273.2777.333.46275z" fill="#000"/><g fill="#fff"><path d="m42.9361 10.7505h5.9287l-3.3208 15.7504c-.6097 2.9831-1.773 4.6905-3.5366 5.9006-1.7838 1.0351-3.8321 1.5243-5.8911 1.4071-3.9212 0-7.683-1.6416-8.0582-5.6285h5.9662c.1876.9381 1.0507 1.4728 2.364 1.4728 1.773 0 2.5891-1.0694 2.955-2.7486l.3564-1.7355h-.1313c-.5235.5755-1.1585 1.0385-1.8664 1.361-.708.3225-1.474.4978-2.2518.5152-3.4521 0-6.1914-2.7486-6.1351-6.773.0751-4.6904 3.1332-10.0187 8.2646-10.0187.9724-.0655 1.9432.1488 2.7977.6176.8545.4687 1.5568 1.1724 2.024 2.0278h.1032zm-5.0938 11.8949c2.2796 0 3.546-2.6266 3.5835-4.8874 0-1.5103-.591-3.0582-2.3358-3.0582-2.3828 0-3.5929 2.6548-3.6304 4.9343 0 1.5385.591 3.0113 2.3358 3.0113m66.6046.5066c0 1.0037-.864 1.4071-1.999 1.4071-1.876 0-2.5043-.9381-2.5137-2.2514h-5.9005c-.1032 4.8968 4.2683 6.1069 8.1522 6.1069 4.962 0 8.18-2.1482 8.246-6.4352 0-3.4241-2.918-4.4653-5.788-5.1314-2.205-.5065-3.171-.8724-3.162-1.7073.01-.8349.995-1.1726 1.961-1.1726 1.21 0 2.035.4315 2.12 1.5385h5.732c-.066-4.0901-3.753-5.2908-7.505-5.2908-4.5592 0-8.1146 2.0731-8.1709 5.9943 0 3.0863 2.0826 4.2214 5.2249 5.0282 2.017.5347 3.621.7035 3.603 1.9137zm43.836-9.8593h-.103c-.255-.9238-.819-1.7325-1.597-2.2922-.778-.5596-1.724-.8365-2.681-.7847-2.551 0-4.108 1.2664-5.581 3.1801h-.103l.544-2.6454h-5.967l-3.574 17.0919h6.239l1.876-9.2214c.431-2.0075 1.454-3.4146 3.002-3.4146s1.754 1.2382 1.435 2.7486l-2.064 9.8874h6.238l1.877-9.2214c.431-2.1388 1.454-3.4146 3.001-3.4146 1.548 0 1.755 1.1726 1.436 2.7486l-2.064 9.8874h6.238l2.233-10.1595c.938-4.287-.497-7.5047-4.615-7.5047-1.146-.0047-2.274.2779-3.282.822s-1.863 1.3323-2.488 2.2925zm-147.09159 14.5497h6.44465l4.98124-23.9681h-6.43527zm19.39959-17.5985c4.3527 0 8.5085 2.3827 8.4428 7.7767-.0563 5.9006-4.0713 10.319-10.2064 10.319-4.2214 0-8.4427-2.3452-8.3677-7.7111.1032-5.7598 4.0619-10.3846 10.1313-10.3846zm-1.5853 13.9118c2.7486 0 3.7523-3.9869 3.7523-6.3321 0-1.6791-.5159-3.3208-2.3265-3.3208-2.7204 0-3.6491 4.2214-3.6491 6.3978 0 1.7448.4878 3.2551 2.2608 3.2551m-4.2777-20.2814-.9381 4.79362h54.1182l.9381-4.79362zm43.5272 6.3696c4.3527 0 8.5084 2.3827 8.4428 7.7767-.0563 5.9006-4.0807 10.319-10.2158 10.319-4.2214 0-8.4428-2.3452-8.3583-7.7111.1313-5.7598 4.09-10.3846 10.1313-10.3846zm-1.5572 13.9118c2.7486 0 3.7523-3.9869 3.7523-6.3321 0-1.6791-.5253-3.3208-2.3358-3.3208-2.7111 0-3.6492 4.2214-3.6492 6.3978 0 1.7448.4878 3.2551 2.2702 3.2551m14.3246-20.2814-.9381 4.79362h6.2289l.9381-4.79362zm-4.9906 23.9681h6.2382l3.5741-17.0919h-6.2758zm19.9061.5722c-.9928.0705-1.9857-.137-2.8673-.5993-.8815-.4623-1.6168-1.1611-2.1233-2.0179h-.1032l-1.8761 8.6491h-6.3134l5.0657-23.696h5.9287l-.469 2.2795c.6191-.842 1.4211-1.5327 2.3456-2.0202.9245-.4874 1.9475-.7589 2.9921-.794 3.7523 0 5.9568 3.2176 5.8912 7.4015-.0845 5.2626-2.8143 10.7973-8.5085 10.7973zm-.2439-13.3583c-2.4108 0-3.893 3.0863-3.9305 5.4597 0 1.651.5816 3.4896 2.5609 3.4896 2.5798 0 3.6398-3.4146 3.6679-5.6942 0-1.5478-.4502-3.2551-2.2983-3.2551zm36.0698 10.0938h.103l-.544 2.7111h5.928l3.575-17.092h-6.229l-1.989 9.5497c-.403 1.9794-1.623 3.0207-3.161 3.0207-1.539 0-1.877-1.4447-1.567-2.955l2.017-9.6154h-6.229l-2.205 10.5535c-.938 4.5966 1.201 7.0732 4.785 7.0732 1.125-.011 2.228-.3185 3.196-.8917s1.769-1.3917 2.32-2.3729zm33.461 9.3809.938-4.7937h-73.9772l-.9381 4.7937z"/><path d="m161.96 15.4409c-.061-.0047-.121-.0216-.176-.0497-.056-.028-.105-.0667-.145-.1138s-.07-.1016-.089-.1605-.026-.1209-.021-.1826c.078-.8354-.021-1.678-.291-2.4724s-.705-1.5229-1.277-2.1375c-.571-.61464-1.266-1.10166-2.038-1.42916-.773-.32749-1.606-.48807-2.445-.47121-.124 0-.243-.04941-.331-.13738-.088-.08796-.138-.20727-.138-.33167s.05-.24369.138-.33165c.088-.08797.207-.13739.331-.13739.225.01454.451.01454.676 0 1.666-.17751 3.218-.9303 4.389-2.12883 1.172-1.19853 1.888-2.76783 2.027-4.437773.01-.117783.063-.227649.15-.307652.087-.080002.201-.124238.319-.123859.062.004735.122.021623.177.049684s.104.066744.144.113825c.041.047082.071.101628.09.160504s.026.120912.021.182547c-.078.834664.021 1.676414.29 2.470194.27.79377.704 1.5217 1.274 2.1362.571.61449 1.264 1.10171 2.035 1.4298.772.32809 1.604.48965 2.442.47412.124 0 .244.04943.332.13739s.137.20726.137.33166-.049.24371-.137.33167-.208.13737-.332.13737c-1.782.02944-3.491.71598-4.798 1.92791-1.307 1.2119-2.121 2.8638-2.284 4.6387-.01.1178-.063.2277-.15.3077s-.201.1242-.32.1238z"/></g></svg>